<svg width="152" height="32" viewBox="0 0 152 32" fill="none" xmlns="http://www.w3.org/2000/svg">
<mask id="mask0_4984_1877" style="mask-type:luminance" maskUnits="userSpaceOnUse" x="5" y="5" width="141" height="22">
<path d="M145.23 5.29279H5.79208V26.7072H145.23V5.29279Z" fill="white"/>
</mask>
<g mask="url(#mask0_4984_1877)">
<path d="M48.0955 5.78979H57.5442C65.4435 5.78979 70.4451 9.70949 70.4451 15.9706C70.4451 22.2316 65.4421 26.2098 57.5442 26.2098H48.0955V5.78979ZM64.5959 15.9706C64.5959 12.577 61.904 10.1199 57.5456 10.1199H53.889V21.8804H57.5456C61.9054 21.8804 64.5959 19.3945 64.5959 15.9713V15.9698V15.9706Z" fill="#D70003"/>
<path d="M96.7581 5.78979H102.549V26.2098H96.7581V5.78979Z" fill="#D70003"/>
<path d="M105.443 5.78979H123.049V10.1199H111.235V13.9522H121.235V18.2252H111.235V26.2098H105.443V5.78979Z" fill="#D70003"/>
<path d="M129.578 11.2307C129.578 10.4704 130.69 9.5924 133.615 9.5924C136.54 9.5924 138.748 10.7603 139.255 12.4535H144.999C144.316 7.75879 140.139 5.3222 133.645 5.3222C127.589 5.3222 123.845 7.89701 123.845 11.7878C123.845 19.7167 139.496 16.9952 139.496 20.3599C139.496 21.3846 137.946 22.4072 134.727 22.4072C131.228 22.4072 128.604 21.0503 128.171 18.716H122.737C123.288 23.4806 126.901 26.6781 134.727 26.6781C141.047 26.6781 145.23 24.2507 145.23 19.9784C145.23 11.7278 129.578 14.5375 129.578 11.2314V11.2307Z" fill="#D70003"/>
<path d="M33.3519 21.8811V17.6984H44.6822V13.6905H33.3519V10.1213H45.6681V5.78979H27.5598V11.6552C27.5598 12.967 28.3969 14.1609 29.6564 14.5269C29.7093 14.5432 29.7629 14.5559 29.8172 14.5693L32.5747 15.211C33.1114 15.3358 33.1114 16.0996 32.5747 16.2251L29.8172 16.8669C29.7629 16.8803 29.7093 16.8937 29.6564 16.9092C28.3969 17.2745 27.5598 18.4692 27.5598 19.7809V26.2106H45.7866V21.8818H33.3519V21.8811Z" fill="#D70003"/>
<path d="M25.1719 21.5038C25.1719 18.8662 24.8249 17.3302 22.8199 16.8479L20.1464 16.2244C19.6097 16.0996 19.6097 15.3358 20.1464 15.2103L22.9038 14.5685C24.0491 14.3013 24.9434 13.407 25.2106 12.2617C25.5548 10.7871 25.205 9.21722 24.2113 8.07474C22.9384 6.6142 20.6901 5.74042 17.4919 5.74042H5.79202V26.1605H11.5841V18.7012H15.855C18.2535 18.7012 19.2937 19.2541 19.2937 21.5045C19.2937 23.2598 19.2909 25.3128 19.7296 26.1619H25.7114C24.9222 24.8741 25.1719 23.4178 25.1719 21.5045V21.5031V21.5038ZM16.9658 14.3415H11.5855V10.0706H17.0243C18.7796 10.0706 19.6273 10.9782 19.6273 12.1764C19.6273 13.3746 18.8085 14.3407 16.9643 14.3407H16.9658V14.3415Z" fill="#D70003"/>
<path d="M72.6497 13.9148C73.0122 14.2336 73.46 14.4557 73.9494 14.5685L76.5581 15.1757C76.5581 15.1694 76.5581 15.1609 76.5609 15.1546C76.5687 15.0791 76.5799 15.003 76.5898 14.9289C76.5976 14.8718 76.6074 14.8161 76.618 14.7604C76.6364 14.6525 76.6582 14.5467 76.6808 14.4416C76.697 14.3711 76.7111 14.3005 76.7302 14.23C76.7478 14.1651 76.7661 14.0996 76.7845 14.0361C76.8021 13.9747 76.8204 13.9155 76.8402 13.8555C76.8599 13.7956 76.879 13.7357 76.9001 13.6764C76.9375 13.5713 76.9756 13.4691 77.0186 13.3682C77.0397 13.3167 77.0637 13.2646 77.0877 13.2138C77.1117 13.163 77.1342 13.1101 77.1596 13.0593C77.19 12.998 77.2196 12.9373 77.2513 12.8774C77.3056 12.7751 77.3599 12.6743 77.4199 12.5755C77.4361 12.5487 77.453 12.5241 77.4699 12.4973C77.5214 12.4148 77.575 12.3337 77.6307 12.2554C77.6533 12.2222 77.6773 12.1891 77.7013 12.1573C77.7676 12.0685 77.8353 11.9796 77.9058 11.8943C77.9135 11.8837 77.922 11.8731 77.9312 11.864C78.0137 11.7666 78.0983 11.6728 78.1879 11.5812C78.2253 11.5424 78.2633 11.5064 78.2993 11.4669C78.3607 11.4006 78.4269 11.3435 78.4961 11.285C78.508 11.2758 78.5186 11.2638 78.5306 11.2546C78.6315 11.1658 78.7365 11.0804 78.8444 10.9979C78.855 10.9902 78.8656 10.9817 78.8762 10.974C78.9784 10.8971 79.0835 10.8237 79.1921 10.7532C79.2013 10.7469 79.2105 10.7398 79.2203 10.7349C79.4566 10.5833 79.7062 10.4464 79.9707 10.3258C80.8692 9.91258 81.92 9.68409 83.0984 9.68409C85.877 9.68409 87.9603 10.7948 88.3806 13.1066H94.3652C93.9442 8.78844 89.717 5.29471 83.0984 5.29471C81.25 5.29471 79.5363 5.62053 78.0094 6.19811H78.0045C77.9869 6.20446 77.97 6.21151 77.953 6.21786C77.8945 6.24043 77.8388 6.26299 77.7802 6.28697C77.678 6.32788 77.5771 6.36949 77.4763 6.41321C77.4192 6.4386 77.362 6.46258 77.3049 6.48796C77.1984 6.53592 77.0933 6.58388 76.9897 6.63395C76.9445 6.65652 76.898 6.67767 76.8529 6.69883C76.551 6.84763 76.2605 7.00702 75.977 7.17698C75.9452 7.19531 75.9142 7.21577 75.8839 7.2341C75.7746 7.30039 75.6674 7.3681 75.5609 7.43862C75.5249 7.4626 75.4889 7.48658 75.453 7.50914C75.3345 7.58884 75.2167 7.66994 75.1025 7.75386C75.0863 7.76585 75.0707 7.77643 75.0545 7.78842C74.0848 8.49788 73.2512 9.33358 72.582 10.2624C72.4275 10.4761 72.2815 10.6954 72.1447 10.9204C72.1419 10.9246 72.1405 10.9267 72.1384 10.9309C71.6066 11.8012 71.7188 12.9324 72.4134 13.6785C72.4875 13.7582 72.5693 13.8379 72.6581 13.9148H72.6518H72.6497Z" fill="#D70003"/>
<path d="M94.6762 15.2688H80.8388V19.3345H88.8552C88.358 21.3529 86.5449 22.3191 83.1217 22.3191C81.9298 22.3191 80.8706 22.0891 79.9672 21.6731C79.7027 21.5525 79.4502 21.4142 79.214 21.2612C79.2048 21.2556 79.1956 21.2492 79.1858 21.2429C79.0743 21.1709 78.9664 21.0955 78.8613 21.0172C78.8536 21.0123 78.8465 21.0066 78.8388 21.001C78.7295 20.9185 78.6237 20.8324 78.5214 20.7422C78.5137 20.7358 78.5052 20.7273 78.4974 20.721C78.4086 20.6399 78.3204 20.5588 78.2358 20.4728C78.2175 20.4544 78.1998 20.4368 78.1815 20.4184C78.0926 20.3254 78.0059 20.2309 77.9234 20.1328C77.9142 20.1223 77.9065 20.1103 77.8966 20.0997C77.8261 20.0144 77.7584 19.9269 77.6935 19.838C77.6709 19.8063 77.6469 19.7746 77.6258 19.7421C77.5672 19.6596 77.5115 19.5764 77.4586 19.4897C77.4424 19.4629 77.4255 19.4368 77.4086 19.41C77.3514 19.3141 77.2971 19.2174 77.2435 19.1173C77.2118 19.0559 77.1794 18.9925 77.149 18.9297C77.1251 18.8803 77.1025 18.8303 77.0799 18.7795C77.0574 18.7287 77.0334 18.68 77.0122 18.6279C76.9699 18.527 76.9297 18.4233 76.8923 18.3183C76.8712 18.2597 76.8521 18.1998 76.8338 18.1405C76.8141 18.0806 76.795 18.0192 76.7781 17.9586C76.7597 17.8951 76.7407 17.8309 76.7252 17.7661C76.7069 17.6941 76.6906 17.6229 76.6751 17.5496C76.6526 17.4459 76.6328 17.3422 76.6138 17.2357C76.6046 17.18 76.5954 17.1243 76.587 17.0672C76.5764 16.9924 76.5658 16.917 76.558 16.8415C76.5517 16.7858 76.5475 16.7301 76.5418 16.6744C76.5298 16.5404 76.5221 16.4036 76.5164 16.2653L73.948 16.8634C73.2547 17.0256 72.6602 17.4226 72.2272 17.9544C72.0996 18.1109 71.9924 18.2893 71.9014 18.4727C71.4938 19.295 71.5375 20.2732 71.9888 21.0715C71.9888 21.0729 71.9917 21.0757 71.9917 21.0764C72.5826 22.1167 73.364 23.0405 74.3048 23.824H74.3112C74.3443 23.8515 74.3761 23.8826 74.4092 23.9101C76.582 25.6732 79.5884 26.7014 83.1181 26.7014C90.7826 26.7014 95.4633 22.1956 94.6741 15.2625L94.6755 15.2688H94.6762Z" fill="#D70003"/>
</g>
</svg>
